<svg width="25" height="25" viewBox="0 0 25 25" fill="none" xmlns="http://www.w3.org/2000/svg">
<path d="M7.57287 2.151H17.427C18.0806 2.19026 18.6922 2.48578 19.1291 2.97338C19.566 3.46099 19.7928 4.10128 19.7604 4.75517V20.2448C19.7928 20.8986 19.566 21.5389 19.1291 22.0265C18.6922 22.5141 18.0806 22.8097 17.427 22.8489H7.57287C6.91935 22.8097 6.30771 22.5141 5.87082 22.0265C5.43393 21.5389 5.20708 20.8986 5.23954 20.2448V4.75517C5.20708 4.10128 5.43393 3.46099 5.87082 2.97338C6.30771 2.48578 6.91935 2.19026 7.57287 2.151ZM6.2812 20.2448C6.24914 20.6224 6.36645 20.9976 6.60796 21.2898C6.84946 21.5819 7.1959 21.7677 7.57287 21.8073H17.427C17.804 21.7677 18.1504 21.5819 18.3919 21.2898C18.6335 20.9976 18.7508 20.6224 18.7187 20.2448V4.75517C18.7508 4.37749 18.6335 4.00229 18.3919 3.71015C18.1504 3.418 17.804 3.23221 17.427 3.19267H15.8333V3.72392C15.8333 4.00019 15.7235 4.26514 15.5282 4.46049C15.3328 4.65584 15.0679 4.76558 14.7916 4.76558H10.2083C9.93202 4.76558 9.66707 4.65584 9.47172 4.46049C9.27637 4.26514 9.16662 4.00019 9.16662 3.72392V3.19267H7.57287C7.1959 3.23221 6.84946 3.418 6.60796 3.71015C6.36645 4.00229 6.24914 4.37749 6.2812 4.75517V20.2448Z" fill="#0F475F"/>
<path d="M14.5833 19.7229H10.4166C10.2785 19.7229 10.146 19.6681 10.0483 19.5704C9.95066 19.4727 9.89579 19.3402 9.89579 19.2021C9.89579 19.064 9.95066 18.9315 10.0483 18.8338C10.146 18.7361 10.2785 18.6813 10.4166 18.6813H14.5833C14.7214 18.6813 14.8539 18.7361 14.9516 18.8338C15.0493 18.9315 15.1041 19.064 15.1041 19.2021C15.1041 19.3402 15.0493 19.4727 14.9516 19.5704C14.8539 19.6681 14.7214 19.7229 14.5833 19.7229Z" fill="#0F475F"/>
</svg>
